<?xml version="1.0" encoding="iso-8859-1"?>
<!-- Generator: Adobe Illustrator 18.0.0, SVG Export Plug-In . SVG Version: 6.00 Build 0)  -->
<!DOCTYPE svg PUBLIC "-//W3C//DTD SVG 1.1//EN" "http://www.w3.org/Graphics/SVG/1.1/DTD/svg11.dtd">
<svg version="1.1" id="Capa_1" xmlns="http://www.w3.org/2000/svg" xmlns:xlink="http://www.w3.org/1999/xlink" x="0px" y="0px"
	 viewBox="0 0 297 297" style="enable-background:new 0 0 297 297;" xml:space="preserve">
<g>
	<path d="M129.392,41.9c3.555,0,7.025-1.441,9.523-3.948c2.508-2.508,3.948-5.979,3.948-9.522c0-3.544-1.44-7.016-3.948-9.524
		c-2.497-2.508-5.968-3.947-9.523-3.947c-3.543,0-7.016,1.439-9.522,3.947c-2.508,2.508-3.948,5.979-3.948,9.524
		c0,3.544,1.44,7.015,3.948,9.522C122.376,40.458,125.849,41.9,129.392,41.9z"/>
	<path d="M61.003,60.551c3.544,0,7.015-1.441,9.521-3.949c2.508-2.507,3.949-5.977,3.949-9.521c0-3.544-1.441-7.016-3.949-9.523
		c-2.497-2.508-5.968-3.947-9.521-3.947c-3.544,0-7.016,1.439-9.523,3.947c-2.508,2.508-3.947,5.979-3.947,9.523
		c0,3.544,1.44,7.015,3.947,9.521C53.988,59.109,57.459,60.551,61.003,60.551z"/>
	<path d="M100.378,91.637c3.555,0,7.025-1.441,9.522-3.948c2.508-2.508,3.948-5.979,3.948-9.522c0-3.544-1.44-7.016-3.948-9.523
		c-2.497-2.507-5.968-3.947-9.522-3.947c-3.543,0-7.016,1.44-9.522,3.947c-2.508,2.508-3.947,5.979-3.947,9.523
		c0,3.544,1.439,7.015,3.947,9.522C93.363,90.195,96.835,91.637,100.378,91.637z"/>
	<path d="M15.411,95.781c3.554,0,7.024-1.44,9.522-3.948c2.507-2.508,3.948-5.979,3.948-9.522c0-3.543-1.441-7.016-3.948-9.523
		c-2.508-2.507-5.979-3.947-9.522-3.947c-3.544,0-7.016,1.44-9.524,3.947c-2.507,2.508-3.947,5.98-3.947,9.523
		c0,3.555,1.44,7.025,3.947,9.522C8.395,94.341,11.867,95.781,15.411,95.781z"/>
	<path d="M293.054,101.51l-30.345-30.346l19.481-38.237c2.649-5.199,1.65-11.514-2.477-15.641
		c-4.126-4.126-10.441-5.126-15.641-2.478l-38.238,19.483L195.492,3.947c-4.128-4.128-10.444-5.131-15.646-2.475
		c-5.201,2.654-8.1,8.355-7.182,14.119l6.747,42.329l-38.179,19.435c-5.201,2.647-8.105,8.344-7.194,14.108
		c0.911,5.765,5.432,10.287,11.196,11.2l25.94,4.113L3.946,274.005c-5.261,5.261-5.261,13.789,0,19.05
		c2.63,2.631,6.077,3.945,9.524,3.945c3.448,0,6.896-1.315,9.525-3.945l167.22-167.22l4.103,25.944
		c0.912,5.767,5.433,10.289,11.198,11.201c0.707,0.112,1.412,0.167,2.112,0.167c5.004,0,9.675-2.795,11.998-7.358l19.455-38.201
		l42.326,6.75c5.763,0.922,11.467-1.979,14.121-7.181C298.181,111.956,297.183,105.639,293.054,101.51z M233.646,89.44
		c-5.768-0.918-11.475,1.983-14.124,7.189l-5.073,9.962l-1.752-11.084c-0.912-5.765-5.433-10.287-11.197-11.2l-11.085-1.757
		l9.951-5.067c5.207-2.649,8.112-8.354,7.192-14.124l-1.753-10.997l7.901,7.9c4.125,4.126,10.44,5.13,15.64,2.478l10.02-5.104
		l-5.105,10.02c-2.649,5.199-1.649,11.514,2.477,15.641l7.898,7.897L233.646,89.44z"/>
</g>
<g>
</g>
<g>
</g>
<g>
</g>
<g>
</g>
<g>
</g>
<g>
</g>
<g>
</g>
<g>
</g>
<g>
</g>
<g>
</g>
<g>
</g>
<g>
</g>
<g>
</g>
<g>
</g>
<g>
</g>
</svg>
